<svg width="144" height="144" viewBox="0 0 144 144" fill="none" xmlns="http://www.w3.org/2000/svg">
<g filter="url(#filter0_d_1737_177)">
<rect x="12" y="4" width="120" height="120" rx="16" fill="#F5FAFF"/>
</g>
<path d="M41.5885 17.8335L41.5885 56.121C37.3343 57.0408 34 60.95 34 65.4341C34 70.0332 37.2194 73.8275 41.5885 74.7473V109.93C41.5885 111.08 42.5083 112 43.6581 112C44.8079 112 45.7277 111.08 45.7277 109.93V74.8623C49.9819 73.9425 53.3162 70.0332 53.3162 65.5491C53.3162 60.95 50.0968 57.1558 45.7277 56.236L45.7277 17.8335C45.7277 16.6837 44.8079 15.7639 43.6581 15.7639C42.5083 15.7639 41.5885 16.6837 41.5885 17.8335ZM49.292 65.4341C49.292 68.4236 46.8775 70.9531 43.7731 70.9531C40.6687 70.9531 38.2542 68.5385 38.2542 65.4341C38.2542 62.4447 40.6687 59.9152 43.7731 59.9152C46.7625 59.9152 49.292 62.3298 49.292 65.4341Z" fill="#00539E"/>
<path d="M69.9879 17.7185V75.7821C65.7338 76.7019 62.3994 80.6112 62.3994 85.0953C62.3994 89.6944 65.6188 93.4886 69.9879 94.4085V109.93C69.9879 111.08 70.9077 112 72.0575 112C73.2073 112 74.1271 111.08 74.1271 109.93V94.4085C78.3813 93.4886 81.7156 89.5794 81.7156 85.0953C81.7156 80.4962 78.4963 76.7019 74.1271 75.7821V17.7185C74.1271 16.5688 73.2073 15.6489 72.0575 15.6489C70.9077 15.6489 69.9879 16.5688 69.9879 17.7185ZM77.5764 85.0953C77.5764 88.0847 75.1619 90.6142 72.0575 90.6142C69.0681 90.6142 66.5386 88.0847 66.5386 85.0953C66.5386 82.1059 68.9531 79.5764 72.0575 79.5764C75.0469 79.5764 77.5764 81.9909 77.5764 85.0953Z" fill="#00539E"/>
<path d="M98.2726 17.8335V35.885C94.0184 36.8048 90.6841 40.714 90.6841 45.1981C90.6841 49.7972 93.9034 53.5915 98.2726 54.5113V109.93C98.2726 111.08 99.1924 112 100.342 112C101.492 112 102.412 111.08 102.412 109.93V54.6263C106.666 53.7064 110 49.7972 110 45.3131C110 40.714 106.781 36.9197 102.412 35.9999V17.8335C102.412 16.6837 101.492 15.7639 100.342 15.7639C99.1924 15.7639 98.2726 16.6837 98.2726 17.8335ZM105.976 45.3131C105.976 48.3025 103.562 50.832 100.457 50.832C97.3528 50.832 94.9382 48.3025 94.9382 45.3131C94.9382 42.3237 97.3528 39.7942 100.457 39.7942C103.562 39.7942 105.976 42.2087 105.976 45.3131Z" fill="#00539E"/>
<defs>
<filter id="filter0_d_1737_177" x="0" y="0" width="144" height="144" filterUnits="userSpaceOnUse" color-interpolation-filters="sRGB">
<feFlood flood-opacity="0" result="BackgroundImageFix"/>
<feColorMatrix in="SourceAlpha" type="matrix" values="0 0 0 0 0 0 0 0 0 0 0 0 0 0 0 0 0 0 127 0" result="hardAlpha"/>
<feMorphology radius="4" operator="erode" in="SourceAlpha" result="effect1_dropShadow_1737_177"/>
<feOffset dy="8"/>
<feGaussianBlur stdDeviation="8"/>
<feComposite in2="hardAlpha" operator="out"/>
<feColorMatrix type="matrix" values="0 0 0 0 0.0823529 0 0 0 0 0.0823529 0 0 0 0 0.0823529 0 0 0 0.1 0"/>
<feBlend mode="normal" in2="BackgroundImageFix" result="effect1_dropShadow_1737_177"/>
<feBlend mode="normal" in="SourceGraphic" in2="effect1_dropShadow_1737_177" result="shape"/>
</filter>
</defs>
</svg>
