<svg width="144" height="144" viewBox="0 0 144 144" fill="none" xmlns="http://www.w3.org/2000/svg">
<g filter="url(#filter0_d_1788_321)">
<rect x="12" y="4" width="120" height="120" rx="16" fill="#F5FAFF"/>
</g>
<path d="M110.598 61.5973H106.864L108.694 58.4271C109.357 57.2782 108.964 55.8087 107.815 55.1455C106.665 54.4819 105.196 54.8757 104.533 56.0248L101.316 61.5973H77.7997L94.4281 44.9689L100.643 46.6342C100.852 46.6901 101.061 46.7168 101.267 46.7168C102.327 46.7168 103.298 46.0089 103.586 44.9357C103.929 43.6542 103.169 42.3367 101.887 41.9934L98.3511 41.0459L100.765 38.632C101.703 37.694 101.703 36.1728 100.765 35.2346C99.827 34.2966 98.3058 34.2966 97.3676 35.2346L94.9536 37.6486L94.0061 34.1127C93.6626 32.8311 92.3458 32.0717 91.0637 32.4141C89.7821 32.7576 89.0217 34.0749 89.3653 35.3565L91.0306 41.5718L74.4023 58.1999V34.6838L79.9748 31.4666C81.1238 30.8032 81.5176 29.3341 80.8541 28.185C80.1905 27.0357 78.7213 26.6422 77.5725 27.3057L74.4023 29.136V25.4021C74.4023 24.0754 73.3267 22.9998 72 22.9998C70.6733 22.9998 69.5977 24.0754 69.5977 25.4021V40.096C57.4748 41.3052 47.9766 51.5638 47.9766 63.9996C47.9766 76.4354 57.4748 86.6941 69.5977 87.9032V102.597C69.5977 103.924 70.6733 104.999 72 104.999C73.3267 104.999 74.4023 103.924 74.4023 102.597V98.8634L77.5725 100.694C77.9508 100.912 78.3638 101.016 78.7714 101.016C79.6016 101.016 80.4092 100.585 80.8541 99.8144C81.5176 98.6653 81.1238 97.196 79.9748 96.5328L74.4023 93.3154V69.7994L91.0306 86.4276L89.3653 92.6431C89.0219 93.9246 89.7825 95.2419 91.064 95.5853C91.2724 95.641 91.4814 95.6678 91.6874 95.6678C92.7479 95.6678 93.7188 94.9597 94.0063 93.8865L94.9536 90.3508L97.3675 92.7646C97.8366 93.2337 98.4514 93.4684 99.0661 93.4684C99.6807 93.4684 100.296 93.2337 100.765 92.7646C101.703 91.8266 101.703 90.3054 100.765 89.3672L98.3507 86.9532L101.887 86.0057C103.168 85.6622 103.929 84.3449 103.585 83.0633C103.242 81.7818 101.925 81.0213 100.643 81.3649L94.4276 83.0302L77.7997 66.402H101.316L104.533 71.9744C104.978 72.7453 105.785 73.1761 106.616 73.1761C107.023 73.1761 107.436 73.0723 107.815 72.8537C108.964 72.1903 109.357 70.7212 108.694 69.5721L106.864 66.402H110.598C111.924 66.402 113 65.3263 113 63.9996C113 62.6729 111.924 61.5973 110.598 61.5973V61.5973ZM52.7812 63.9996C52.7812 54.2158 60.13 46.1166 69.5977 44.9308V83.0685C60.13 81.8827 52.7812 73.7834 52.7812 63.9996V63.9996Z" fill="#00539E"/>
<path d="M43.5008 63.9996C43.5008 62.6729 42.4252 61.5973 41.0985 61.5973H33.4023C32.0756 61.5973 31 62.6729 31 63.9996C31 65.3264 32.0756 66.402 33.4023 66.402H41.0985C42.4252 66.402 43.5008 65.3264 43.5008 63.9996Z" fill="#00539E"/>
<path d="M48.4508 43.8477C48.9199 44.3169 49.5347 44.5514 50.1494 44.5514C50.7641 44.5514 51.3791 44.3167 51.848 43.8477C52.7862 42.9096 52.7862 41.3886 51.848 40.4503L46.4062 35.0082C45.4683 34.07 43.9472 34.07 43.0088 35.0082C42.0706 35.9462 42.0706 37.4672 43.0088 38.4055L48.4508 43.8477Z" fill="#00539E"/>
<path d="M48.4508 84.1516L43.0088 89.5935C42.0706 90.5316 42.0706 92.0527 43.0088 92.9909C43.4779 93.46 44.0928 93.6947 44.7074 93.6947C45.3221 93.6947 45.9371 93.46 46.4061 92.9909L51.848 87.549C52.7862 86.6109 52.7862 85.0898 51.848 84.1516C50.91 83.2136 49.3888 83.2136 48.4508 84.1516V84.1516Z" fill="#00539E"/>
<path d="M58.1916 36.2508C58.5694 37.1858 59.4695 37.7534 60.4195 37.7534C60.7193 37.7534 61.0241 37.6969 61.3191 37.5775C62.5491 37.0804 63.1433 35.68 62.6459 34.45L59.7614 27.3147C59.2643 26.0847 57.8637 25.4904 56.6339 25.988C55.4039 26.4851 54.8097 27.8855 55.3072 29.1155L58.1916 36.2508Z" fill="#00539E"/>
<path d="M45.5782 74.6804C45.0811 73.4504 43.6805 72.8563 42.4507 73.3537L35.3156 76.2381C34.0856 76.7353 33.4914 78.1357 33.9888 79.3657C34.3668 80.3007 35.2667 80.8682 36.2167 80.8682C36.5166 80.8682 36.8213 80.8117 37.1163 80.6924L44.2515 77.808C45.4815 77.3109 46.0756 75.9106 45.5782 74.6804V74.6804Z" fill="#00539E"/>
<path d="M61.193 90.3701C59.9649 89.8671 58.5623 90.4545 58.0591 91.682L55.1405 98.8033C54.6373 100.031 55.2248 101.434 56.4524 101.937C56.7506 102.059 57.0591 102.117 57.3626 102.117C58.3084 102.117 59.2055 101.555 59.5865 100.625L62.505 93.5041C63.0081 92.2765 62.4208 90.8733 61.193 90.3701Z" fill="#00539E"/>
<path d="M35.3744 51.5861L42.4957 54.5044C42.7938 54.6266 43.1022 54.6845 43.4057 54.6845C44.3518 54.6845 45.2486 54.122 45.6297 53.1924C46.1329 51.9648 45.5454 50.5617 44.3177 50.0587L37.1963 47.1403C35.9689 46.6372 34.5656 47.2245 34.0625 48.4523C33.5592 49.6799 34.1465 51.083 35.3744 51.5861V51.5861Z" fill="#00539E"/>
<defs>
<filter id="filter0_d_1788_321" x="0" y="0" width="144" height="144" filterUnits="userSpaceOnUse" color-interpolation-filters="sRGB">
<feFlood flood-opacity="0" result="BackgroundImageFix"/>
<feColorMatrix in="SourceAlpha" type="matrix" values="0 0 0 0 0 0 0 0 0 0 0 0 0 0 0 0 0 0 127 0" result="hardAlpha"/>
<feMorphology radius="4" operator="erode" in="SourceAlpha" result="effect1_dropShadow_1788_321"/>
<feOffset dy="8"/>
<feGaussianBlur stdDeviation="8"/>
<feComposite in2="hardAlpha" operator="out"/>
<feColorMatrix type="matrix" values="0 0 0 0 0.0823529 0 0 0 0 0.0823529 0 0 0 0 0.0823529 0 0 0 0.1 0"/>
<feBlend mode="normal" in2="BackgroundImageFix" result="effect1_dropShadow_1788_321"/>
<feBlend mode="normal" in="SourceGraphic" in2="effect1_dropShadow_1788_321" result="shape"/>
</filter>
</defs>
</svg>
