<svg width="144" height="144" viewBox="0 0 144 144" fill="none" xmlns="http://www.w3.org/2000/svg">
<g filter="url(#filter0_d_1788_304)">
<rect x="12" y="4" width="120" height="120" rx="16" fill="#F5FAFF"/>
</g>
<path d="M71.9989 58.6678C74.9443 58.6678 77.332 61.0556 77.332 64.001C77.332 64.7373 76.7352 65.3342 75.9988 65.3342C75.2624 65.3342 74.6656 64.7373 74.6656 64.001C74.6656 62.5282 73.4717 61.3343 71.9989 61.3343C71.2625 61.3343 70.6657 60.7373 70.6657 60.0011C70.6657 59.2647 71.2625 58.6678 71.9989 58.6678V58.6678Z" fill="#00539E"/>
<path d="M36.2907 69.4969C32.6349 66.2102 31.3041 60.9638 32.3335 53.888C32.5416 52.1891 33.3372 50.6167 34.5828 49.4428C35.7227 48.4042 38.8253 46.4123 43.0172 50.3481C45.2098 52.3147 47.6408 53.998 50.2529 55.3585C46.429 51.9172 43.1291 47.5682 42.8611 42.6549C42.5931 37.7417 45.3677 33.0792 51.1088 28.802C52.4602 27.7438 54.1397 27.1922 55.8554 27.2435C57.3927 27.3221 60.9899 28.1261 61.1712 33.8512C61.3304 36.7679 61.8532 39.6532 62.727 42.4403C62.4697 37.3219 63.2203 31.938 66.4937 28.2955C69.767 24.6529 75.0321 23.3038 82.1093 24.337C83.8092 24.5429 85.3831 25.3384 86.5571 26.5849C87.5971 27.7249 89.5876 30.8301 85.6518 35.0206C83.6831 37.2168 81.9983 39.6518 80.6373 42.2683C84.0745 38.4378 88.4197 35.1379 93.3316 34.8632C98.2474 34.6192 102.913 37.3591 107.198 43.103C108.247 44.4528 108.795 46.1246 108.75 47.8335C108.682 49.3734 107.903 52.9774 102.145 53.1666C99.2203 53.3319 96.3277 53.8589 93.533 54.7359C98.6634 54.4786 104.066 55.2306 107.706 58.5105C111.346 61.7904 112.695 67.0422 111.664 74.1141C111.456 75.8129 110.661 77.3854 109.415 78.5592C108.458 79.4583 107.2 79.9692 105.887 79.9925C104.011 79.8793 102.252 79.0412 100.982 77.6552C98.7969 75.7035 96.3785 74.03 93.7822 72.6727C97.5941 76.1152 100.877 80.4592 101.141 85.3603C101.405 90.2617 98.6381 94.9334 92.9036 99.2C91.6329 100.191 90.0737 100.741 88.4624 100.765H88.1556C86.6183 100.687 83.0211 99.8826 82.8385 94.1575C82.6794 91.2143 82.1518 88.3028 81.2679 85.491C81.5346 90.635 80.7932 96.0521 77.5039 99.7159C74.932 102.568 71.1709 104 66.2737 104C64.8056 103.993 63.34 103.879 61.8885 103.66C60.1885 103.454 58.6147 102.658 57.4406 101.412C56.4007 100.272 54.4101 97.1668 58.3459 92.9763C60.3096 90.7865 61.9911 88.3592 63.3511 85.7512C59.9112 89.5725 55.566 92.8696 50.6594 93.1377C50.4421 93.1497 50.2235 93.155 50.0074 93.155C45.3409 93.155 40.8983 90.3804 36.8078 84.8886C35.7585 83.5389 35.2099 81.8669 35.2559 80.1581C35.3238 78.6181 36.1026 75.0142 41.861 74.8315C44.7854 74.6661 47.678 74.1391 50.4727 73.2622C49.8728 73.2928 49.2728 73.3116 48.6661 73.3116C44.1012 73.3222 39.5132 72.3915 36.2907 69.4969V69.4969ZM58.5061 33.938C58.3955 30.4474 56.8608 29.966 55.7235 29.9075C54.6284 29.8943 53.5622 30.2582 52.7036 30.938C47.7224 34.6486 45.3065 38.5378 45.5238 42.5097C45.9358 50.0442 55.6876 56.5599 59.8646 59.0133C60.7313 59.5265 61.474 59.9332 62.0393 60.2332C62.7035 58.4756 63.8192 56.924 65.2738 55.7348C65.0618 55.0868 64.7406 54.0281 64.3859 52.6828C60.9243 47.0086 58.9054 40.5727 58.5061 33.938ZM71.9989 72.0008C76.4171 72.0008 79.9987 68.4192 79.9987 64.0011C79.9987 59.5829 76.4171 56.0013 71.9989 56.0013C67.5808 56.0013 63.9992 59.5829 63.9992 64.0011C64.0036 68.4174 67.5827 71.9965 71.9989 72.0008ZM84.5865 28.3808C83.8225 27.5975 82.8122 27.1008 81.7252 26.9741C75.584 26.0809 71.1282 27.1247 68.4777 30.0767C63.6337 35.4698 65.4204 46.0202 66.9177 51.8293C67.1736 52.8278 67.4191 53.6613 67.6136 54.2919C69.3331 53.5044 71.2327 53.1939 73.1134 53.3933C73.4148 52.8053 73.9134 51.876 74.5801 50.7267C76.1537 44.2304 79.2861 38.2155 83.7066 33.2019C86.1026 30.6435 85.3573 29.2262 84.5865 28.3808V28.3808ZM106.093 47.7136C106.103 46.619 105.74 45.5535 105.065 44.6923C101.353 39.7165 97.4435 37.3205 93.4903 37.5258C85.9373 37.9472 79.4361 47.7096 76.9908 51.8907C76.4908 52.7413 76.0909 53.4706 75.7909 54.04C77.5396 54.7078 79.0823 55.8226 80.2654 57.2732C80.9121 57.0626 81.9547 56.7399 83.288 56.3905C88.9719 52.9246 95.4171 50.9009 102.062 50.496C105.975 50.3707 106.061 48.4428 106.093 47.7121V47.7136ZM102.803 75.7128C105.357 78.1127 106.775 77.3607 107.621 76.5913C108.403 75.8282 108.898 74.8194 109.025 73.7341C109.92 67.601 108.879 63.145 105.93 60.4918C100.586 55.692 90.1557 57.396 84.3173 58.8772C84.2697 58.8962 84.2206 58.9119 84.1706 58.9239C83.176 59.1798 82.3454 59.4239 81.716 59.6198C82.3416 60.9957 82.6653 62.4896 82.6653 64.0011C82.6653 64.3709 82.6471 64.7353 82.6107 65.0943C83.2106 65.3984 84.1665 65.9049 85.3412 66.5943C91.8172 68.161 97.811 71.2902 102.798 75.7087L102.803 75.7128ZM85.5039 94.0642C85.6145 97.5547 87.1491 98.0361 88.2864 98.0947C89.382 98.1063 90.4487 97.7425 91.309 97.0641C96.2848 93.3575 98.6994 89.4644 98.4847 85.5031C98.0847 77.9739 88.333 71.4462 84.1598 68.9889C83.2892 68.4742 82.5439 68.0663 81.9719 67.7649C81.3049 69.5253 80.185 71.0785 78.7253 72.2674C78.9347 72.906 79.2586 73.9394 79.6026 75.2606C83.0855 80.9482 85.1123 87.4066 85.5039 94.0642V94.0642ZM59.4114 99.6214C60.1737 100.403 61.1815 100.9 62.266 101.028C68.4058 101.92 72.8616 100.88 75.5135 97.9268C80.5493 92.3137 78.2734 80.8073 77.0615 76.1207C77.0615 76.094 77.0482 76.066 77.0429 76.0367C76.7976 75.1034 76.5655 74.3141 76.3762 73.7153C75.0017 74.3409 73.5092 74.6654 71.9989 74.6673C71.6302 74.667 71.2618 74.6479 70.8949 74.61C70.5896 75.2059 70.0856 76.154 69.4017 77.3219C67.8464 83.8078 64.7175 89.8106 60.2913 94.8C57.8953 97.3587 58.6408 98.776 59.4114 99.6214ZM37.9187 80.2886C37.9095 81.3831 38.273 82.448 38.9493 83.3085C42.6599 88.2842 46.5397 90.6923 50.5131 90.4789C58.0408 90.0668 64.5567 80.3112 67.0111 76.1352C67.5205 75.2712 67.9258 74.5353 68.2284 73.962C66.4718 73.2955 64.9215 72.178 63.7339 70.7221C63.0939 70.9301 62.0486 71.2554 60.714 71.6115C55.0324 75.0751 48.5908 77.0982 41.9493 77.5046C38.4414 77.6179 37.9694 79.1459 37.9187 80.2898V80.2886ZM59.846 69.0889C60.8366 68.8222 61.6646 68.5822 62.2913 68.3875C61.5085 66.6741 61.1991 64.7825 61.3954 62.9091C60.798 62.6038 59.8487 62.0985 58.6781 61.4118C52.191 59.8554 46.1879 56.7235 41.2001 52.2935C38.6469 49.8936 37.2281 50.6442 36.3829 51.4149C35.5996 52.1761 35.1021 53.1836 34.9735 54.2681C34.0789 60.4012 35.1215 64.8572 38.0734 67.5091C43.4665 72.361 54.0356 70.577 59.846 69.085V69.0889Z" fill="#00539E"/>
<defs>
<filter id="filter0_d_1788_304" x="0" y="0" width="144" height="144" filterUnits="userSpaceOnUse" color-interpolation-filters="sRGB">
<feFlood flood-opacity="0" result="BackgroundImageFix"/>
<feColorMatrix in="SourceAlpha" type="matrix" values="0 0 0 0 0 0 0 0 0 0 0 0 0 0 0 0 0 0 127 0" result="hardAlpha"/>
<feMorphology radius="4" operator="erode" in="SourceAlpha" result="effect1_dropShadow_1788_304"/>
<feOffset dy="8"/>
<feGaussianBlur stdDeviation="8"/>
<feComposite in2="hardAlpha" operator="out"/>
<feColorMatrix type="matrix" values="0 0 0 0 0.0823529 0 0 0 0 0.0823529 0 0 0 0 0.0823529 0 0 0 0.1 0"/>
<feBlend mode="normal" in2="BackgroundImageFix" result="effect1_dropShadow_1788_304"/>
<feBlend mode="normal" in="SourceGraphic" in2="effect1_dropShadow_1788_304" result="shape"/>
</filter>
</defs>
</svg>
